<?xml version="1.0" encoding="utf-8"?>
<!-- Generator: Adobe Illustrator 26.0.2, SVG Export Plug-In . SVG Version: 6.00 Build 0)  -->
<svg version="1.1" id="Layer_1" xmlns="http://www.w3.org/2000/svg" xmlns:xlink="http://www.w3.org/1999/xlink" x="0px" y="0px"
	 viewBox="0 0 50 50" style="enable-background:new 0 0 50 50;" xml:space="preserve">
<style type="text/css">
	.st0{fill:url(#SVGID_1_);}
	.st1{fill:url(#SVGID_00000080902519205631301490000017451931661900585353_);}
	.st2{fill:url(#SVGID_00000129189103787490248600000004749178885393599874_);}
	.st3{fill:url(#SVGID_00000158021870816681931490000001677577335832953226_);}
</style>
<radialGradient id="SVGID_1_" cx="24.608" cy="-66.519" r="23.672" gradientTransform="matrix(1 0 0 -1 0 -44)" gradientUnits="userSpaceOnUse">
	<stop  offset="0.655" style="stop-color:#076CB3"/>
	<stop  offset="0.746" style="stop-color:#138CD2"/>
	<stop  offset="0.886" style="stop-color:#199AE0"/>
	<stop  offset="1" style="stop-color:#1898DE"/>
</radialGradient>
<path class="st0" d="M11.6,10.8l-7.4,0.7c-0.5,0-0.7,0.7-0.3,1l4.6,3.9L11.6,10.8z"/>
<radialGradient id="SVGID_00000167362366304374397060000015859639718618178449_" cx="25.04" cy="-69.204" r="24.951" gradientTransform="matrix(1 0 0 -1 0 -44)" gradientUnits="userSpaceOnUse">
	<stop  offset="0.766" style="stop-color:#076CB3"/>
	<stop  offset="0.848" style="stop-color:#138CD2"/>
	<stop  offset="0.961" style="stop-color:#199AE0"/>
	<stop  offset="1" style="stop-color:#1898DE"/>
</radialGradient>
<path style="fill:url(#SVGID_00000167362366304374397060000015859639718618178449_);" d="M18.1,43.3l5,6.5c0.3,0.4,1,0.2,1.1-0.3
	l0.7-5.6L18.1,43.3z"/>
<radialGradient id="SVGID_00000160870552867895187790000017933753881830332076_" cx="25.109" cy="-68.788" r="24.224" gradientTransform="matrix(1 0 0 -1 0 -44)" gradientUnits="userSpaceOnUse">
	<stop  offset="0.643" style="stop-color:#076CB3"/>
	<stop  offset="0.792" style="stop-color:#138CD2"/>
	<stop  offset="0.908" style="stop-color:#199AE0"/>
	<stop  offset="1" style="stop-color:#1898DE"/>
</radialGradient>
<path style="fill:url(#SVGID_00000160870552867895187790000017933753881830332076_);" d="M45.6,12.2l-5,2.2l3.3,5l2.5-6.4
	C46.6,12.4,46.1,11.9,45.6,12.2z"/>
<linearGradient id="SVGID_00000101801805642207052270000005365226752612429719_" gradientUnits="userSpaceOnUse" x1="24.0749" y1="-74.179" x2="31.1629" y2="-33.978" gradientTransform="matrix(1 0 0 -1 0 -44)">
	<stop  offset="0" style="stop-color:#1EA2E4"/>
	<stop  offset="1" style="stop-color:#32BDEF"/>
</linearGradient>
<path style="fill:url(#SVGID_00000101801805642207052270000005365226752612429719_);" d="M44.9,27.1c-0.3,3.1-1.4,6.1-3,8.6
	c-3.1,4.9-8.4,8.4-14.2,9.1c-0.2,0-0.4,0.1-0.7,0.1C26.3,45,25.7,45,25,45c-2.2,0-4.3-0.4-6.3-1l-1.4-1.8c-0.3-0.3-0.2-0.8,0.1-1.1
	l7.6-5.9c0.4-0.3,1,0,0.9,0.5L25.4,40c7.5-0.2,13.5-5.8,14.5-13.1c0.1-0.5,0.5-0.9,1-0.9h3C44.5,26,44.9,26.5,44.9,27.1z M19.7,11
	c1.6-0.6,3.4-1,5.3-1c4.9,0,9.2,2.3,12,6l-4,1.8c-0.5,0.2-0.5,0.9,0,1.1l8.9,3.5c0.4,0.2,0.9,0,1-0.5l1.1-2.9
	c-0.6-1.8-1.4-3.5-2.4-5l0,0c-0.9-1.3-1.9-2.5-3.1-3.6C34.4,6.5,28.6,4.5,23,5.1c-1.9,0.2-3.8,0.7-5.5,1.4c-0.6,0.2-0.8,0.9-0.5,1.4
	l1.5,2.6C18.7,11,19.2,11.1,19.7,11z M13.7,10.6l-2.9,0.3c-1.4,1.4-2.5,2.9-3.4,4.6l0,0c-0.2,0.3-0.3,0.6-0.5,0.9
	c-3.6,7.2-2.1,16.4,3.4,22.3c0.4,0.5,0.9,0.9,1.4,1.3c0,0,0,0,0,0c0.5,0.4,1.2,0.3,1.5-0.2l1.5-2.7c0.2-0.4,0.1-0.9-0.2-1.2
	C11.8,33.2,10,29.3,10,25c0-2.2,0.5-4.3,1.4-6.2l3.1,2.6c0.4,0.3,1,0,1-0.5l-0.8-9.5C14.5,10.9,14.1,10.6,13.7,10.6z"/>
</svg>
